<svg width="126" height="28" viewBox="0 0 126 28" fill="none" xmlns="http://www.w3.org/2000/svg">
<path fill-rule="evenodd" clip-rule="evenodd" d="M125.573 21.5633C120.317 29.4606 111.994 27.1691 109.494 25.3749C108.43 26.0147 106.565 27.417 104.077 27.255C98.7794 26.9104 96.8823 20.2007 96.8823 20.2007C96.9204 20.2275 95.3043 20.6949 94.4308 20.6866C94.4196 22.6542 92.5005 27.3546 87.3212 27.2945C81.5092 27.2273 80.3276 19.5531 80.3276 19.5531C80.3276 19.5531 79.7493 20.2649 77.5502 20.9739C77.6609 19.4622 77.58 27.0644 70.6141 27.1761C65.1071 27.2646 63.6206 19.4348 63.6206 19.4348C63.6206 19.4348 62.6652 20.3143 60.8138 20.6194C60.9315 19.0831 60.7402 27.2019 53.7735 27.1761C49.0654 27.1588 47.4566 22.353 47.5817 21.686C47.7414 20.8359 45.9906 27.2957 41.4174 27.195C39.5303 27.1459 38.1233 25.9349 37.2405 24.3204C36.0586 25.5189 34.3427 27.195 32.4178 27.195C28.9625 27.195 27.4392 24.6337 27.6972 17.3179C27.7192 16.4502 27.6485 16.109 26.6753 15.9792C26.0912 15.8928 25.4929 15.7292 24.86 15.643C24.6571 16.243 22.9364 26.9998 17.0195 27.204C15.0345 27.2725 13.9491 25.7485 13.0578 24.6174C11.6914 26.2194 9.88767 27.255 7.31814 27.255C2.96555 27.255 0 24.1365 0 20.2895C0 16.4425 2.96555 13.3242 7.31814 13.3242C8.08772 13.3242 8.30376 13.422 9.00682 13.6038C7.56095 1.93646 10.9755 0.113027 13.9625 0.113027C16.8302 0.113027 21.7293 6.01204 14.8358 20.9751C16.3663 25.4381 19.6658 25.1857 21.2513 15.9982C21.574 14.1307 20.7111 11.6105 22.0532 11.2588C24.5065 10.616 24.7668 12.5446 25.9171 12.866C27.1334 13.2056 27.8433 13.1724 29.011 13.3885C31.0062 13.7339 31.7848 14.6838 31.5417 16.7996C31.2498 19.4767 30.7391 23.3732 32.2961 23.8481C33.419 24.1931 35.469 22.1293 35.8287 21.0001C36.1883 19.871 36.2635 19.4845 36.2954 18.6563C36.344 16.8861 36.4051 15.5886 36.7457 14.2499C36.8915 13.7319 37.0576 13.3888 37.7189 13.3654C38.263 13.3531 39.258 13.2079 39.6961 13.51C40.2799 13.8988 40.2069 14.2933 40.1399 15.3316C39.4609 30.1353 44.6869 22.7452 46.2451 16.8279C45.6902 10.1369 46.0712 0.235551 50.802 0.0694879C53.2624 -0.0168743 54.3502 1.73006 54.4698 3.03399C54.8082 6.71676 52.9126 12.8172 50.4196 16.9197C48.9948 25.2907 56.6492 26.9459 57.8733 20.2642C55.8706 19.4202 53.7063 16.0044 55.4675 14.3397C56.4558 13.4055 60.5695 14.7476 60.6369 17.6748C62.6548 17.1965 62.9242 16.1867 62.9522 16.354C62.3975 9.66298 62.912 0.235638 67.6432 0.0695734C70.1032 -0.0167888 71.1908 1.73015 71.3104 3.03407C71.6488 6.71683 69.7532 12.8173 67.2606 16.9199C65.8356 25.2907 73.4902 26.946 74.7139 20.2643C73.2312 20.0107 70.1013 16.3775 71.9072 14.3398C72.8723 13.2509 76.971 15.5154 77.4299 17.7717C79.3683 17.2855 79.6316 16.3078 79.6594 16.4724C79.1046 9.78156 79.619 0.354218 84.3502 0.188154C86.8103 0.101792 87.8979 1.84873 88.0175 3.15265C88.3559 6.83541 86.4603 12.936 83.9673 17.0385C82.5427 25.4095 90.1971 27.0644 91.4212 20.3827C89.3836 20.082 86.4878 16.2458 88.8185 14.2833C89.7496 13.4992 93.3077 15.5346 94.1406 17.8568C95.2978 17.8173 96.0182 17.4636 96.1726 17.4279C94.3251 9.57305 95.7004 0.148361 100.79 0.0696886C103.541 0.0272078 106.23 1.38773 105.05 8.8606C103.923 15.9906 99.8726 18.9827 99.882 19.0285C100.118 19.8827 102.196 27.0312 107.43 23.2594C107.159 22.7157 106.887 22.1603 106.736 21.4874C105.868 17.5677 107.572 13.1404 112.203 12.4249C114.857 12.0149 117.356 13.1598 117.751 15.741C118.401 19.9645 114.098 23.0233 112.462 23.6868C111.729 23.3178 119.106 27.5107 123.483 19.108C123.737 18.6282 124.043 18.6689 124.44 18.9162C124.72 19.0908 126.315 20.4299 125.573 21.5633ZM10.4843 19.2517C10.2615 18.6615 9.8044 17.361 9.64276 16.7976C8.75252 16.1114 8.1171 16 6.9744 16C4.43497 16 2.9403 18.0809 2.9403 20.3247C2.9403 22.5684 4.56863 24.6496 7.10807 24.6496C9.30879 24.6496 10.9837 23.3235 11.4948 21.4462C11.1371 20.7143 10.7823 20.0417 10.4843 19.2517ZM13.9003 3.20145C12.1159 3.20145 11.5107 6.97401 11.6281 10.1924C11.732 13.0378 12.6291 15.5428 13.0945 16.6653C13.2127 16.8059 13.1907 16.7144 13.2962 16.8636C16.3944 10.8472 15.1093 3.20145 13.9003 3.20145ZM51.0569 3.31996C48.7507 3.08554 48.7656 11.6001 49.0519 13.51C50.2496 11.8118 52.3303 3.77721 51.0569 3.31996ZM67.8975 3.31996C65.5913 3.08554 65.6062 11.6001 65.8927 13.51C67.0903 11.8118 69.1711 3.77721 67.8975 3.31996ZM84.6047 3.43842C82.2984 3.204 82.3133 11.7186 82.5997 13.6287C83.7973 11.9303 85.8781 3.89564 84.6047 3.43842ZM101.044 2.82153C97.4513 3.46102 98.2879 14.0789 98.8337 15.9412C103.066 10.789 103.153 2.628 101.044 2.82153ZM114.511 16.0903C114.328 15.4133 113.414 15.0515 112.784 15.1407C110.98 15.359 109.23 17.3505 109.907 20.3824C110.058 21.0576 110.435 21.6792 110.429 21.6585C114.467 19.2577 114.81 17.3659 114.511 16.0903ZM38.4262 11.0218C37.9105 11.0219 37.4065 10.8864 36.9777 10.6326C36.5489 10.3787 36.2146 10.0179 36.0172 9.59571C35.8198 9.17351 35.7682 8.7089 35.8688 8.26067C35.9692 7.81243 36.2176 7.40069 36.5822 7.07751C36.9467 6.75433 37.4112 6.53425 37.917 6.44507C38.4227 6.3559 38.9469 6.40164 39.4234 6.57654C39.8998 6.75143 40.3069 7.04761 40.5933 7.42761C40.8798 7.80761 41.0327 8.25437 41.0327 8.71137C41.0327 9.01476 40.9653 9.31519 40.8343 9.59549C40.7034 9.8758 40.5114 10.1305 40.2693 10.345C40.0272 10.5596 39.7399 10.7298 39.4237 10.8459C39.1075 10.962 38.7685 11.0218 38.4262 11.0218Z" fill="#0D0C22"/>
</svg>
